<?xml version="1.0" encoding="utf-8"?>
<!-- Generator: Adobe Illustrator 24.1.3, SVG Export Plug-In . SVG Version: 6.00 Build 0)  -->
<svg version="1.1" id="Lager_1" focusable="false" xmlns="http://www.w3.org/2000/svg" xmlns:xlink="http://www.w3.org/1999/xlink"
	 x="0px" y="0px" viewBox="0 0 640 512" style="enable-background:new 0 0 640 512;" xml:space="preserve">
<style type="text/css">
	.st0{fill:#FCE46B;}
</style>
<path class="st0" d="M176,256c44.1,0,80-35.9,80-80s-35.9-80-80-80s-80,35.9-80,80S131.9,256,176,256z M528,128H304
	c-8.8,0-16,7.2-16,16v144H64V80c0-8.8-7.2-16-16-16H16C7.2,64,0,71.2,0,80v352c0,8.8,7.2,16,16,16h32c8.8,0,16-7.2,16-16v-48h512v48
	c0,8.8,7.2,16,16,16h32c8.8,0,16-7.2,16-16V240C640,178.1,589.9,128,528,128z"/>
</svg>
