<?xml version="1.0" encoding="utf-8"?>
<!-- Generator: Adobe Illustrator 24.1.3, SVG Export Plug-In . SVG Version: 6.00 Build 0)  -->
<svg version="1.1" id="Lager_1" focusable="false" xmlns="http://www.w3.org/2000/svg" xmlns:xlink="http://www.w3.org/1999/xlink"
	 x="0px" y="0px" viewBox="0 0 448 512" style="enable-background:new 0 0 448 512;" xml:space="preserve">
<style type="text/css">
	.st0{fill:#FCE46B;}
	.st1{fill:#232323;}
</style>
<path class="st0" d="M448,96v256c0,51.8-61.6,96-130,96l63,49.7c5.9,4.7,2.6,14.3-5,14.3H72c-7.6,0-10.9-9.6-5-14.3l63-49.7
	C61.8,448,0,404,0,352V96C0,43,64,0,128,0h192C385,0,448,43,448,96z M200,232V120c0-13.3-10.7-24-24-24H72c-13.3,0-24,10.7-24,24
	v112c0,13.3,10.7,24,24,24h104C189.3,256,200,245.3,200,232z M400,232V120c0-13.3-10.7-24-24-24H272c-13.3,0-24,10.7-24,24v112
	c0,13.3,10.7,24,24,24h104C389.3,256,400,245.3,400,232z"/>
<path class="st1" d="M157,277c16.9,0,30.5,13.6,30.5,30.5c0,16.9-13.6,30.5-30.5,30.5s-30.5-13.6-30.5-30.5
	C126.5,290.6,140.1,277,157,277z M278.8,410.4c-14.2-17-35.1-26.8-57.2-26.8s-43,9.8-57.2,26.8c-8.6,10.3-24.2-2.7-15.6-13
	c18.1-21.6,44.7-34.1,72.8-34.1s54.7,12.4,72.8,34.1C302.9,407.8,287.3,420.8,278.8,410.4L278.8,410.4z M281,277
	c16.9,0,30.5,13.6,30.5,30.5c0,16.9-13.6,30.5-30.5,30.5s-30.5-13.6-30.5-30.5C250.5,290.6,264.1,277,281,277z"/>
</svg>
