<?xml version="1.0" encoding="utf-8"?>
<!-- Generator: Adobe Illustrator 24.1.3, SVG Export Plug-In . SVG Version: 6.00 Build 0)  -->
<svg version="1.1" id="Lager_1" focusable="false" xmlns="http://www.w3.org/2000/svg" xmlns:xlink="http://www.w3.org/1999/xlink"
	 x="0px" y="0px" viewBox="0 0 512 512" style="enable-background:new 0 0 512 512;" xml:space="preserve">
<style type="text/css">
	.st0{fill:#FCE46B;}
</style>
<path class="st0" d="M500,8h-27.7c-6.7,0-12.2,5.5-12,12.3l2.3,98.6C418.2,52,342.3,8,256,8C134.8,8,33.9,94.9,12.3,209.8
	c-1.4,7.4,4.3,14.2,11.8,14.2h28.6c5.7,0,10.5-4,11.7-9.5C83.4,126.1,161.9,60,256,60c79.5,0,147.9,47.3,178.7,115.3l-126.4-3
	c-6.7-0.2-12.3,5.3-12.3,12V212c0,6.6,5.4,12,12,12h192c6.6,0,12-5.4,12-12V20C512,13.4,506.6,8,500,8z M487.9,288h-28.6
	c-5.7,0-10.5,4-11.7,9.5C428.6,385.9,350.1,452,256,452c-79.5,0-147.9-47.3-178.7-115.3l126.4,3c6.7,0.2,12.3-5.3,12.3-12V300
	c0-6.6-5.4-12-12-12H12c-6.6,0-12,5.4-12,12v192c0,6.6,5.4,12,12,12h27.7c6.7,0,12.2-5.5,12-12.3l-2.3-98.6
	C93.8,460,169.7,504,256,504c121.2,0,222.1-86.9,243.7-201.8C501.1,294.8,495.4,288,487.9,288L487.9,288z"/>
</svg>
