<?xml version="1.0" encoding="utf-8"?>
<!-- Generator: Adobe Illustrator 24.1.3, SVG Export Plug-In . SVG Version: 6.00 Build 0)  -->
<svg version="1.1" id="Lager_1" focusable="false" xmlns="http://www.w3.org/2000/svg" xmlns:xlink="http://www.w3.org/1999/xlink"
	 x="0px" y="0px" viewBox="0 0 1154 512" style="enable-background:new 0 0 1154 512;" xml:space="preserve">
<style type="text/css">
	.st0{fill:#424242;}
	.st1{fill:#EB4343;}
</style>
<path class="st0" d="M248.5,206l6.4,108.3c0.4,6.1,5.4,10.9,11.6,10.9h40c6.1,0,11.2-4.8,11.6-10.9l6.4-108.3
	c0.4-6.7-4.9-12.3-11.6-12.3h-52.7C253.4,193.7,248.2,199.3,248.5,206L248.5,206z M327.1,379.3c0,22.4-18.2,40.6-40.6,40.6
	c-22.4,0-40.6-18.2-40.6-40.6c0-22.4,18.2-40.6,40.6-40.6C308.9,338.7,327.1,356.9,327.1,379.3z M326.7,31.2
	c-17.8-30.9-62.6-31-80.4,0l-232,402.3c-17.8,30.9,4.5,69.6,40.2,69.6h464.1c35.6,0,58.1-38.7,40.2-69.6L326.7,31.2L326.7,31.2z
	 M59.4,448l222-384.9c2.2-3.9,7.8-3.9,10.1,0l222,384.9c2.2,3.9-0.6,8.7-5,8.7H64.5C60,456.7,57.2,451.9,59.4,448L59.4,448z"/>
<path class="st1" d="M828,206.4l6.4,108.3c0.4,6.1,5.4,10.9,11.6,10.9h40c6.1,0,11.2-4.8,11.6-10.9l6.4-108.3
	c0.4-6.7-4.9-12.3-11.6-12.3h-52.7C832.9,194.1,827.6,199.7,828,206.4L828,206.4z M906.6,379.8c0,22.4-18.2,40.6-40.6,40.6
	c-22.4,0-40.6-18.2-40.6-40.6s18.2-40.6,40.6-40.6C888.4,339.2,906.6,357.3,906.6,379.8z M906.2,31.6c-17.8-30.9-62.6-31-80.4,0
	l-232,402.3c-17.8,30.9,4.5,69.6,40.2,69.6H1098c35.6,0,58.1-38.7,40.2-69.6L906.2,31.6L906.2,31.6z M638.9,448.4L861,63.6
	c2.2-3.9,7.8-3.9,10.1,0l222,384.9c2.2,3.9-0.6,8.7-5,8.7H643.9C639.5,457.1,636.7,452.3,638.9,448.4L638.9,448.4z"/>
</svg>
